<svg width="97" height="89" viewBox="0 0 97 89" fill="none" xmlns="http://www.w3.org/2000/svg">
<path d="M29.4464 47.6786H67.5536M67.5536 69.9286H29.4464M57.1607 25.4286V6.35716C57.1607 5.51415 56.7957 4.70567 56.146 4.10957C55.4964 3.51347 54.6152 3.17859 53.6964 3.17859H43.3036C42.3848 3.17859 41.5036 3.51347 40.8539 4.10957C40.2043 4.70567 39.8393 5.51415 39.8393 6.35716V25.4286C36.6413 27.379 34.0189 30.0249 32.2056 33.1306C30.3922 36.2363 29.4444 39.7053 29.4464 43.2286V79.4643C29.4464 81.1503 30.1764 82.7673 31.4757 83.9595C32.7751 85.1517 34.5374 85.8214 36.375 85.8214H60.625C62.4626 85.8214 64.2249 85.1517 65.5242 83.9595C66.8236 82.7673 67.5536 81.1503 67.5536 79.4643V43.2286C67.5556 39.7053 66.6077 36.2363 64.7944 33.1306C62.9811 30.0249 60.3586 27.379 57.1607 25.4286Z" stroke="black" stroke-width="2.85714" stroke-linecap="round" stroke-linejoin="round"/>
</svg>
