<svg width="92" height="98" viewBox="0 0 92 98" fill="none" xmlns="http://www.w3.org/2000/svg">
<g opacity="0.79" filter="url(#filter0_d_51_25)">
<path d="M11.5 38.5938V34.1407C11.4998 32.1927 11.9122 30.2683 12.7083 28.5022C13.5043 26.7362 14.6648 25.1712 16.1083 23.9171C17.5518 22.663 19.2434 21.75 21.0646 21.2422C22.8859 20.7343 24.7926 20.6439 26.6513 20.9772C27.861 16.6434 30.4026 12.8333 33.8927 10.1215C37.3828 7.40962 41.6322 5.94312 46 5.94312C50.3678 5.94312 54.6172 7.40962 58.1073 10.1215C61.5974 12.8333 64.139 16.6434 65.3487 20.9772C67.2074 20.6439 69.1141 20.7343 70.9354 21.2422C72.7566 21.75 74.4482 22.663 75.8917 23.9171C77.3352 25.1712 78.4957 26.7362 79.2917 28.5022C80.0878 30.2683 80.5002 32.1927 80.5 34.1407V38.5938C80.5013 47.5291 77.2507 56.1386 71.393 62.7153C65.5353 69.2919 57.498 73.3554 48.875 74.1V83.125H43.125V74.1C34.502 73.3554 26.4647 69.2919 20.607 62.7153C14.7493 56.1386 11.4987 47.5291 11.5 38.5938ZM37.2945 35.6191H54.7055C54.4499 33.2664 54.8051 30.8859 55.7348 28.7218C56.6644 26.5578 58.135 24.6881 59.9955 23.3047C59.2508 20.0496 57.4636 17.1494 54.9235 15.0739C52.3834 12.9984 49.2391 11.8692 46 11.8692C42.7609 11.8692 39.6166 12.9984 37.0765 15.0739C34.5364 17.1494 32.7492 20.0496 32.0045 23.3047C33.866 24.6886 35.3371 26.5592 36.2668 28.7245C37.1965 30.8897 37.5512 33.2714 37.2945 35.625V35.6191ZM30.7453 35.6191C30.9585 34.6417 30.956 33.6273 30.7381 32.651C30.5202 31.6747 30.0924 30.7615 29.4864 29.9791C28.8803 29.1967 28.1116 28.565 27.2372 28.131C26.3627 27.6969 25.4049 27.4715 24.4346 27.4715C23.4644 27.4715 22.5065 27.6969 21.6321 28.131C20.7576 28.565 19.9889 29.1967 19.3829 29.9791C18.7769 30.7615 18.3491 31.6747 18.1311 32.651C17.9132 33.6273 17.9108 34.6417 18.124 35.6191H30.7453ZM61.2547 35.6191H73.8703C74.0835 34.6417 74.081 33.6273 73.8631 32.651C73.6452 31.6747 73.2174 30.7615 72.6114 29.9791C72.0053 29.1967 71.2366 28.565 70.3622 28.131C69.4877 27.6969 68.5299 27.4715 67.5596 27.4715C66.5894 27.4715 65.6315 27.6969 64.7571 28.131C63.8826 28.565 63.1139 29.1967 62.5079 29.9791C61.9019 30.7615 61.4741 31.6747 61.2561 32.651C61.0382 33.6273 61.0358 34.6417 61.249 35.6191H61.2547ZM46 68.2813C53.1282 68.2812 60.0022 65.5468 65.2881 60.6086C70.574 55.6703 73.8949 48.8805 74.6063 41.5566H17.3938C18.1051 48.8805 21.426 55.6703 26.7119 60.6086C31.9978 65.5468 38.8718 68.2812 46 68.2813ZM34.5 83.131H57.5C58.2625 83.131 58.9938 83.4438 59.5329 84.0005C60.0721 84.5573 60.375 85.3124 60.375 86.0997C60.375 86.8871 60.0721 87.6422 59.5329 88.199C58.9938 88.7557 58.2625 89.0685 57.5 89.0685H34.5C33.7375 89.0685 33.0062 88.7557 32.4671 88.199C31.9279 87.6422 31.625 86.8871 31.625 86.0997C31.625 85.3124 31.9279 84.5573 32.4671 84.0005C33.0062 83.4438 33.7375 83.131 34.5 83.131Z" fill="black"/>
</g>
<defs>
<filter id="filter0_d_51_25" x="-4" y="0" width="100" height="103" filterUnits="userSpaceOnUse" color-interpolation-filters="sRGB">
<feFlood flood-opacity="0" result="BackgroundImageFix"/>
<feColorMatrix in="SourceAlpha" type="matrix" values="0 0 0 0 0 0 0 0 0 0 0 0 0 0 0 0 0 0 127 0" result="hardAlpha"/>
<feOffset dy="4"/>
<feGaussianBlur stdDeviation="2"/>
<feComposite in2="hardAlpha" operator="out"/>
<feColorMatrix type="matrix" values="0 0 0 0 0 0 0 0 0 0 0 0 0 0 0 0 0 0 0.3 0"/>
<feBlend mode="normal" in2="BackgroundImageFix" result="effect1_dropShadow_51_25"/>
<feBlend mode="normal" in="SourceGraphic" in2="effect1_dropShadow_51_25" result="shape"/>
</filter>
</defs>
</svg>
