<svg width="116" height="101" viewBox="0 0 116 101" fill="none" xmlns="http://www.w3.org/2000/svg">
<path d="M14.5 34.7756V34.7188C14.4999 29.1074 16.4086 23.6216 19.9853 18.9536C23.5621 14.2857 28.6465 10.6446 34.5973 8.48987C40.548 6.33512 47.0984 5.76321 53.4221 6.84629C59.7457 7.92938 65.5593 10.6189 70.1293 14.5756C73.7249 13.0304 77.7412 12.3807 81.7344 12.6983C85.7276 13.016 89.5422 14.2885 92.7568 16.3755C95.9714 18.4624 98.4608 21.2824 99.95 24.524C101.439 27.7656 101.87 31.3025 101.196 34.7441C102.188 34.8242 103.15 35.0816 104.023 35.5C104.895 35.9185 105.66 36.4891 106.268 37.1762C106.876 37.8633 107.315 38.6521 107.558 39.4936C107.8 40.335 107.841 41.2109 107.677 42.0666C104.4 59.2302 96.2945 70.0941 83.375 74.6643V78.9063C83.375 81.4176 82.2292 83.826 80.1898 85.6017C78.1503 87.3775 75.3842 88.3751 72.5 88.3751H43.5C40.6158 88.3751 37.8497 87.3775 35.8102 85.6017C33.7708 83.826 32.625 81.4176 32.625 78.9063V74.6643C19.7055 70.0941 11.6 59.2302 8.323 42.0666C8.16485 41.2336 8.20021 40.3815 8.427 39.5606C8.65379 38.7397 9.06739 37.9668 9.64333 37.2876C10.2193 36.6084 10.9459 36.0367 11.7801 35.6063C12.6143 35.1759 13.5392 34.8956 14.5 34.7819V34.7756ZM21.75 34.7188H29C29 30.5334 30.9096 26.5193 34.3087 23.5598C37.7078 20.6002 42.318 18.9376 47.125 18.9376C51.9321 18.9376 56.5422 20.6002 59.9413 23.5598C63.3404 26.5193 65.25 30.5334 65.25 34.7188H72.5C72.5 28.8592 69.8266 23.2395 65.0678 19.0962C60.3091 14.9528 53.8549 12.6251 47.125 12.6251C40.3951 12.6251 33.9409 14.9528 29.1822 19.0962C24.4234 23.2395 21.75 28.8592 21.75 34.7188ZM36.25 34.7188H58C58 32.2075 56.8543 29.7991 54.8148 28.0234C52.7753 26.2477 50.0092 25.2501 47.125 25.2501C44.2408 25.2501 41.4747 26.2477 39.4352 28.0234C37.3958 29.7991 36.25 32.2075 36.25 34.7188ZM86.0285 34.7188H93.7933C94.3406 32.8533 94.3916 30.9036 93.9425 29.0183C93.4933 27.133 92.5558 25.3619 91.2014 23.8398C89.8469 22.3178 88.1114 21.085 86.1269 20.2355C84.1424 19.3859 81.9614 18.942 79.75 18.9376C78.01 18.9376 76.357 19.2027 74.82 19.6887C76.1033 21.4815 77.1618 23.4131 77.9738 25.4394C79.3546 25.1412 80.8057 25.2026 82.1468 25.616C83.488 26.0294 84.6602 26.7766 85.518 27.7648C86.3758 28.7531 86.8815 29.9389 86.9723 31.1751C87.063 32.4113 86.7348 33.6435 86.0285 34.7188ZM76.125 75.7501H39.875V78.9063C39.875 79.7434 40.2569 80.5462 40.9367 81.1381C41.6166 81.73 42.5386 82.0626 43.5 82.0626H72.5C73.4614 82.0626 74.3835 81.73 75.0633 81.1381C75.7431 80.5462 76.125 79.7434 76.125 78.9063V75.7501ZM37.323 69.4376H78.677C90.1755 66.2182 97.4545 57.1156 100.529 41.0313H15.4715C18.5455 57.1156 25.8245 66.2182 37.323 69.4376Z" fill="black" fill-opacity="0.79"/>
</svg>
