<svg width="116" height="107" viewBox="0 0 116 107" fill="none" xmlns="http://www.w3.org/2000/svg">
<g filter="url(#filter0_d_51_29)">
<path d="M14.5 36.8415V36.7813C14.4999 30.8365 16.4086 25.0248 19.9853 20.0795C23.5621 15.1343 28.6465 11.2769 34.5973 8.99418C40.548 6.71142 47.0984 6.10554 53.4221 7.25297C59.7457 8.40039 65.5592 11.2497 70.1293 15.4415C73.7249 13.8044 77.7412 13.1161 81.7344 13.4526C85.7276 13.7891 89.5422 15.1373 92.7568 17.3482C95.9714 19.5591 98.4608 22.5467 99.95 25.9809C101.439 29.415 101.87 33.1621 101.195 36.808C102.188 36.8929 103.15 37.1656 104.023 37.6089C104.895 38.0522 105.66 38.6567 106.268 39.3846C106.876 40.1125 107.315 40.9483 107.558 41.8397C107.8 42.7311 107.841 43.659 107.677 44.5655C104.4 62.7488 96.2945 74.258 83.375 79.0998V83.5938C83.375 86.2542 82.2292 88.8057 80.1898 90.6869C78.1503 92.5682 75.3842 93.625 72.5 93.625H43.5C40.6158 93.625 37.8497 92.5682 35.8102 90.6869C33.7708 88.8057 32.625 86.2542 32.625 83.5938V79.0998C19.7055 74.258 11.6 62.7488 8.323 44.5655C8.16485 43.6831 8.20021 42.7803 8.427 41.9107C8.65379 41.0411 9.06739 40.2222 9.64333 39.5027C10.2193 38.7831 10.9459 38.1774 11.7801 37.7215C12.6143 37.2655 13.5392 36.9685 14.5 36.8481V36.8415ZM21.75 36.7813H29C29 32.3472 30.9096 28.0947 34.3087 24.9593C37.7078 21.824 42.318 20.0625 47.125 20.0625C51.9321 20.0625 56.5422 21.824 59.9413 24.9593C63.3404 28.0947 65.25 32.3472 65.25 36.7813H72.5C72.5 30.5735 69.8266 24.6201 65.0678 20.2305C60.3091 15.841 53.8549 13.375 47.125 13.375C40.3951 13.375 33.9409 15.841 29.1822 20.2305C24.4234 24.6201 21.75 30.5735 21.75 36.7813ZM36.25 36.7813H58C58 34.1208 56.8542 31.5693 54.8148 29.6881C52.7753 27.8069 50.0092 26.75 47.125 26.75C44.2408 26.75 41.4747 27.8069 39.4352 29.6881C37.3958 31.5693 36.25 34.1208 36.25 36.7813ZM86.0285 36.7813H93.7933C94.3406 34.8049 94.3916 32.7394 93.9424 30.7421C93.4933 28.7448 92.5558 26.8685 91.2014 25.256C89.8469 23.6436 88.1114 22.3376 86.1269 21.4376C84.1424 20.5375 81.9614 20.0672 79.75 20.0625C78.01 20.0625 76.357 20.3434 74.82 20.8583C76.1032 22.7576 77.1618 24.804 77.9738 26.9506C79.3546 26.6347 80.8057 26.6998 82.1468 27.1377C83.488 27.5757 84.6602 28.3672 85.518 29.4142C86.3758 30.4611 86.8815 31.7174 86.9722 33.027C87.063 34.3367 86.7348 35.6421 86.0285 36.7813ZM76.125 80.25H39.875V83.5938C39.875 84.4806 40.2569 85.3311 40.9367 85.9582C41.6166 86.5852 42.5386 86.9375 43.5 86.9375H72.5C73.4614 86.9375 74.3834 86.5852 75.0633 85.9582C75.7431 85.3311 76.125 84.4806 76.125 83.5938V80.25ZM37.323 73.5625H78.677C90.1755 70.1519 97.4545 60.5085 100.528 43.4688H15.4715C18.5455 60.5085 25.8245 70.1519 37.323 73.5625Z" fill="#353535"/>
</g>
<defs>
<filter id="filter0_d_51_29" x="-4" y="0" width="124" height="115" filterUnits="userSpaceOnUse" color-interpolation-filters="sRGB">
<feFlood flood-opacity="0" result="BackgroundImageFix"/>
<feColorMatrix in="SourceAlpha" type="matrix" values="0 0 0 0 0 0 0 0 0 0 0 0 0 0 0 0 0 0 127 0" result="hardAlpha"/>
<feOffset dy="4"/>
<feGaussianBlur stdDeviation="2"/>
<feComposite in2="hardAlpha" operator="out"/>
<feColorMatrix type="matrix" values="0 0 0 0 0 0 0 0 0 0 0 0 0 0 0 0 0 0 0.3 0"/>
<feBlend mode="normal" in2="BackgroundImageFix" result="effect1_dropShadow_51_29"/>
<feBlend mode="normal" in="SourceGraphic" in2="effect1_dropShadow_51_29" result="shape"/>
</filter>
</defs>
</svg>
