<svg width="700" height="100" viewBox="0 0 700 100" fill="none" xmlns="http://www.w3.org/2000/svg">
<path d="M50 3.90594L61.8402 32.3732L62.192 33.2191L63.1053 33.2923L93.8381 35.7561L70.4229 55.8137L69.7271 56.4097L69.9397 57.3009L77.0934 87.2909L50.7819 71.2199L50 70.7423L49.2181 71.2199L22.9066 87.2909L30.0603 57.3009L30.2729 56.4097L29.5771 55.8137L6.16194 35.7561L36.8947 33.2923L37.808 33.2191L38.1598 32.3732L50 3.90594Z" fill="#F1C644" stroke="#F1C644" stroke-width="3"/>
<path d="M200 3.90594L211.84 32.3732L212.192 33.2191L213.105 33.2923L243.838 35.7561L220.423 55.8137L219.727 56.4097L219.94 57.3009L227.093 87.2909L200.782 71.2199L200 70.7423L199.218 71.2199L172.907 87.2909L180.06 57.3009L180.273 56.4097L179.577 55.8137L156.162 35.7561L186.895 33.2923L187.808 33.2191L188.16 32.3732L200 3.90594Z" fill="#F1C644" stroke="#F1C644" stroke-width="3"/>
<path d="M350 3.90594L361.84 32.3732L362.192 33.2191L363.105 33.2923L393.838 35.7561L370.423 55.8137L369.727 56.4097L369.94 57.3009L377.093 87.2909L350.782 71.2199L350 70.7423L349.218 71.2199L322.907 87.2909L330.06 57.3009L330.273 56.4097L329.577 55.8137L306.162 35.7561L336.895 33.2923L337.808 33.2191L338.16 32.3732L350 3.90594Z" fill="#F1C644" stroke="#F1C644" stroke-width="3"/>
<path d="M500 3.90594L511.84 32.3732L512.192 33.2191L513.105 33.2923L543.838 35.7561L520.423 55.8137L519.727 56.4097L519.94 57.3009L527.093 87.2909L500.782 71.2199L500 70.7423L499.218 71.2199L472.907 87.2909L480.06 57.3009L480.273 56.4097L479.577 55.8137L456.162 35.7561L486.895 33.2923L487.808 33.2191L488.16 32.3732L500 3.90594Z" fill="#F1C644" stroke="#F1C644" stroke-width="3"/>
<path d="M650 3.90594L661.84 32.3732L662.192 33.2191L663.105 33.2923L693.838 35.7561L670.423 55.8137L669.727 56.4097L669.94 57.3009L677.093 87.2909L650.782 71.2199L650 70.7423L649.218 71.2199L622.907 87.2909L630.06 57.3009L630.273 56.4097L629.577 55.8137L606.162 35.7561L636.895 33.2923L637.808 33.2191L638.16 32.3732L650 3.90594Z" fill="#F1C644" stroke="#F1C644" stroke-width="3"/>
</svg>
