<svg width="92" height="89" viewBox="0 0 92 89" fill="none" xmlns="http://www.w3.org/2000/svg">
<g filter="url(#filter0_d_56_67)">
<path d="M14.5 40.9983H46V45.9983H14.5V40.9983ZM9.25 28.4983H35.5V33.4983H9.25V28.4983Z" fill="#FFC700"/>
<path d="M82.5374 42.5133L74.6624 25.0133C74.4603 24.5635 74.124 24.1801 73.6951 23.9108C73.2662 23.6415 72.7637 23.498 72.25 23.4983H64.375V18.4983C64.375 17.8352 64.0985 17.1994 63.6062 16.7305C63.1139 16.2617 62.4462 15.9983 61.75 15.9983H19.75V20.9983H59.125V52.3883C57.9289 53.0498 56.8821 53.9302 56.045 54.9789C55.2079 56.0276 54.5971 57.2237 54.2478 58.4983H37.7523C37.1134 56.1416 35.5939 54.0878 33.4788 52.7218C31.3636 51.3558 28.7979 50.7713 26.2626 51.078C23.7274 51.3847 21.3966 52.5614 19.7072 54.3877C18.0178 56.214 17.0857 58.5644 17.0857 60.9983C17.0857 63.4322 18.0178 65.7826 19.7072 67.6089C21.3966 69.4351 23.7274 70.6119 26.2626 70.9186C28.7979 71.2253 31.3636 70.6408 33.4788 69.2748C35.5939 67.9088 37.1134 65.8549 37.7523 63.4983H54.2478C54.8188 65.6439 56.1247 67.5469 57.9589 68.9062C59.7932 70.2656 62.0509 71.0036 64.375 71.0036C66.6991 71.0036 68.9569 70.2656 70.7911 68.9062C72.6253 67.5469 73.9312 65.6439 74.5023 63.4983H80.125C80.8212 63.4983 81.4889 63.2349 81.9812 62.7661C82.4735 62.2972 82.75 61.6613 82.75 60.9983V43.4983C82.7502 43.1596 82.6778 42.8245 82.5374 42.5133ZM27.625 65.9983C26.5867 65.9983 25.5716 65.705 24.7083 65.1556C23.8449 64.6062 23.172 63.8253 22.7747 62.9117C22.3773 61.9981 22.2733 60.9927 22.4759 60.0228C22.6785 59.0529 23.1785 58.162 23.9127 57.4628C24.6469 56.7635 25.5824 56.2873 26.6008 56.0944C27.6192 55.9014 28.6748 56.0005 29.6341 56.3789C30.5934 56.7573 31.4134 57.3982 31.9902 58.2204C32.5671 59.0427 32.875 60.0094 32.875 60.9983C32.8736 62.324 32.3201 63.595 31.3358 64.5324C30.3515 65.4698 29.017 65.997 27.625 65.9983ZM64.375 28.4983H70.5175L76.1455 40.9983H64.375V28.4983ZM64.375 65.9983C63.3367 65.9983 62.3216 65.705 61.4583 65.1556C60.5949 64.6062 59.922 63.8253 59.5247 62.9117C59.1273 61.9981 59.0233 60.9927 59.2259 60.0228C59.4285 59.0529 59.9285 58.162 60.6627 57.4628C61.3969 56.7635 62.3324 56.2873 63.3508 56.0944C64.3692 55.9014 65.4248 56.0005 66.3841 56.3789C67.3434 56.7573 68.1634 57.3982 68.7402 58.2204C69.3171 59.0427 69.625 60.0094 69.625 60.9983C69.6236 62.324 69.0701 63.595 68.0858 64.5324C67.1015 65.4698 65.767 65.997 64.375 65.9983ZM77.5 58.4983H74.5023C73.9241 56.3569 72.616 54.4587 70.7833 53.1014C68.9505 51.7441 66.6967 51.0044 64.375 50.9983V45.9983H77.5V58.4983Z" fill="#FFC700"/>
</g>
<defs>
<filter id="filter0_d_56_67" x="0" y="0.998291" width="92" height="88" filterUnits="userSpaceOnUse" color-interpolation-filters="sRGB">
<feFlood flood-opacity="0" result="BackgroundImageFix"/>
<feColorMatrix in="SourceAlpha" type="matrix" values="0 0 0 0 0 0 0 0 0 0 0 0 0 0 0 0 0 0 127 0" result="hardAlpha"/>
<feOffset dy="4"/>
<feGaussianBlur stdDeviation="2"/>
<feComposite in2="hardAlpha" operator="out"/>
<feColorMatrix type="matrix" values="0 0 0 0 0 0 0 0 0 0 0 0 0 0 0 0 0 0 0.25 0"/>
<feBlend mode="normal" in2="BackgroundImageFix" result="effect1_dropShadow_56_67"/>
<feBlend mode="normal" in="SourceGraphic" in2="effect1_dropShadow_56_67" result="shape"/>
</filter>
</defs>
</svg>
