<svg width="92" height="89" viewBox="0 0 92 89" fill="none" xmlns="http://www.w3.org/2000/svg">
<g filter="url(#filter0_d_56_66)">
<g filter="url(#filter1_d_56_66)">
<path d="M47.9515 4.20068C47.9515 4.20068 45.8253 5.23412 43.7011 6.756C42.6392 7.51693 41.5642 8.39975 40.7144 9.41646C39.8645 10.433 39.1719 11.6402 39.2772 13.0518C39.3943 14.6205 40.5109 15.7888 41.702 16.4893C42.893 17.1896 44.2453 17.6133 45.519 18.0313C46.7927 18.4493 47.9881 18.8615 48.7464 19.3076C49.5049 19.7535 49.7393 20.0424 49.7772 20.5518C49.7816 20.6096 49.7086 20.9183 49.3485 21.3491C48.9884 21.7799 48.4091 22.2757 47.803 22.7101C46.5909 23.5783 45.3265 24.2007 45.3265 24.2007L46.6735 26.7032C46.6735 26.7032 48.1215 26.001 49.5784 24.9572C50.3068 24.4354 51.051 23.828 51.6588 23.101C52.2667 22.3737 52.8061 21.4697 52.7228 20.3521C52.6056 18.7833 51.489 17.6151 50.2979 16.9146C49.107 16.2141 47.7546 15.7905 46.481 15.3726C45.2072 14.9546 44.0119 14.5424 43.2536 14.0963C42.4951 13.6502 42.2607 13.3615 42.2228 12.8521C42.1965 12.5002 42.4224 11.8883 43.0244 11.1682C43.6265 10.4479 44.5367 9.67615 45.4765 9.00287C47.3556 7.65646 49.2985 6.70318 49.2985 6.70318L47.9515 4.20068ZM26.9515 11.7007C26.9515 11.7007 24.8253 12.7341 22.7011 14.256C21.6392 15.0169 20.5642 15.8997 19.7144 16.9165C18.8645 17.933 18.1719 19.1402 18.2772 20.5518C18.3943 22.1205 19.5109 23.2888 20.702 23.9893C21.893 24.6896 23.2453 25.1133 24.519 25.5313C25.7927 25.9493 26.9881 26.3615 27.7464 26.8076C28.5049 27.2535 28.7393 27.5424 28.7772 28.0518C28.7816 28.1096 28.7086 28.4183 28.3485 28.8491C27.9884 29.2799 27.4091 29.7757 26.803 30.2101C25.5909 31.0783 24.3265 31.7007 24.3265 31.7007L25.6735 34.2032C25.6735 34.2032 27.1215 33.501 28.5784 32.4572C29.3068 31.9354 30.051 31.328 30.6588 30.6008C31.2667 29.8737 31.8061 28.9696 31.7228 27.8521C31.6056 26.2833 30.489 25.1151 29.2979 24.4146C28.107 23.7141 26.7546 23.2905 25.481 22.8726C24.2072 22.4546 23.0119 22.0424 22.2536 21.5963C21.4951 21.1502 21.2607 20.8615 21.2228 20.3521C21.1965 20.0002 21.4224 19.3883 22.0244 18.6682C22.6265 17.9479 23.5367 17.1762 24.4765 16.5029C26.3556 15.1565 28.2985 14.2032 28.2985 14.2032L26.9515 11.7007ZM68.9515 11.7007C68.9515 11.7007 66.8253 12.7341 64.7011 14.256C63.6392 15.0169 62.5642 15.8997 61.7144 16.9165C60.8645 17.933 60.1719 19.1402 60.2772 20.5518C60.3943 22.1205 61.5109 23.2888 62.702 23.9893C63.893 24.6896 65.2453 25.1133 66.519 25.5313C67.7927 25.9493 68.9881 26.3615 69.7464 26.8076C70.5049 27.2535 70.7393 27.5424 70.7772 28.0518C70.7816 28.1096 70.7086 28.4183 70.3485 28.8491C69.9884 29.2799 69.4091 29.7757 68.803 30.2101C67.5909 31.0783 66.3265 31.7007 66.3265 31.7007L67.6735 34.2032C67.6735 34.2032 69.1215 33.501 70.5784 32.4572C71.3068 31.9354 72.051 31.328 72.6588 30.6008C73.2667 29.8737 73.8061 28.9696 73.7228 27.8521C73.6056 26.2833 72.489 25.1151 71.2979 24.4146C70.107 23.7141 68.7546 23.2905 67.481 22.8726C66.2072 22.4546 65.0119 22.0424 64.2536 21.5963C63.4951 21.1502 63.2607 20.8615 63.2228 20.3521C63.1965 20.0002 63.4224 19.3883 64.0244 18.6682C64.6265 17.9479 65.5367 17.1762 66.4765 16.5029C68.3556 15.1565 70.2985 14.2032 70.2985 14.2032L68.9515 11.7007ZM46 30.2954C43.8672 30.2954 42.4247 31.2194 41.3222 32.7944C40.8658 33.4465 40.4975 34.2163 40.2206 35.0546C42.0777 34.8035 44.0055 34.671 46 34.671C47.9945 34.671 49.9221 34.8035 51.7794 35.0546C51.5025 34.2163 51.1342 33.4465 50.6777 32.7944C49.5752 31.2194 48.1328 30.2954 46 30.2954ZM46 37.4829C26.4065 37.4829 14.2125 50.9265 13.427 64.671H78.573C77.7873 50.9265 65.5933 37.4827 46 37.4827V37.4829ZM7.66891 65.3952L5.58105 67.3837C8.55387 70.2151 11.875 70.2954 14.5 70.2954H77.5C80.125 70.2954 83.4459 70.2151 86.4189 67.3837L84.3311 65.3952C82.0539 67.5638 80.125 67.4835 77.5 67.4835H14.5C11.875 67.4835 9.94594 67.5638 7.66891 65.3952ZM22.5085 73.1079L25.7901 77.796H66.2099L69.4914 73.1079H22.5085Z" fill="#FFC700"/>
</g>
</g>
<defs>
<filter id="filter0_d_56_66" x="0" y="0.998291" width="92" height="88" filterUnits="userSpaceOnUse" color-interpolation-filters="sRGB">
<feFlood flood-opacity="0" result="BackgroundImageFix"/>
<feColorMatrix in="SourceAlpha" type="matrix" values="0 0 0 0 0 0 0 0 0 0 0 0 0 0 0 0 0 0 127 0" result="hardAlpha"/>
<feOffset dy="4"/>
<feGaussianBlur stdDeviation="2"/>
<feComposite in2="hardAlpha" operator="out"/>
<feColorMatrix type="matrix" values="0 0 0 0 0 0 0 0 0 0 0 0 0 0 0 0 0 0 0.25 0"/>
<feBlend mode="normal" in2="BackgroundImageFix" result="effect1_dropShadow_56_66"/>
<feBlend mode="normal" in="SourceGraphic" in2="effect1_dropShadow_56_66" result="shape"/>
</filter>
<filter id="filter1_d_56_66" x="0" y="0.998291" width="92" height="88" filterUnits="userSpaceOnUse" color-interpolation-filters="sRGB">
<feFlood flood-opacity="0" result="BackgroundImageFix"/>
<feColorMatrix in="SourceAlpha" type="matrix" values="0 0 0 0 0 0 0 0 0 0 0 0 0 0 0 0 0 0 127 0" result="hardAlpha"/>
<feOffset dy="4"/>
<feGaussianBlur stdDeviation="2"/>
<feComposite in2="hardAlpha" operator="out"/>
<feColorMatrix type="matrix" values="0 0 0 0 0 0 0 0 0 0 0 0 0 0 0 0 0 0 0.25 0"/>
<feBlend mode="normal" in2="BackgroundImageFix" result="effect1_dropShadow_56_66"/>
<feBlend mode="normal" in="SourceGraphic" in2="effect1_dropShadow_56_66" result="shape"/>
</filter>
</defs>
</svg>
